%
M48
M72
T01C0.01000
T02C0.01200
T03C0.01400
T04C0.02000
T05C0.04000
T06C0.12598
T07C0.15000
%
T01
X85900Y34077
X290900Y31577
X316400Y34077
X316400Y171077
X163200Y181977
X158800Y181277
X85400Y171077
T02
X98000Y174477
X105000Y183977
X117000Y178477
X119500Y175977
X122000Y173477
X124800Y170677
X146500Y181477
X157000Y178477
X159600Y175977
X162100Y173477
X164800Y170677
X189000Y168977
X199500Y175977
X197000Y178477
X202200Y173477
X205000Y170677
X217000Y160477
X249500Y163977
X252500Y166477
X255000Y168977
X259000Y166477
X277000Y157977
X279000Y155477
X285500Y151477
X293700Y152977
X300500Y155977
X309000Y152977
X310000Y155977
X306500Y161377
X300500Y161477
X295400Y164877
X292000Y167477
X295000Y169977
X292000Y172477
X295000Y174977
X291900Y177677
X295200Y180177
X291900Y182777
X295000Y187977
X309500Y179477
X329000Y174477
X330500Y179477
X340500Y174477
X321654Y152324
X325000Y137477
X327000Y120977
X304000Y108877
X301500Y113977
X293000Y116477
X290500Y113977
X281500Y113477
X279000Y111477
X281000Y108477
X281000Y100977
X286200Y100977
X288000Y95977
X284500Y93477
X281000Y90977
X278500Y88477
X281000Y83477
X276000Y79977
X273000Y78477
X269500Y76477
X264500Y81477
X261000Y79977
X269500Y84477
X263000Y69977
X285000Y58477
X294500Y63477
X299500Y55977
X285000Y49077
X287000Y41977
X290500Y34477
X294500Y32477
X300000Y29477
X304000Y30477
X301500Y22477
X294000Y14477
X296500Y12477
X299000Y10477
X301500Y8477
X282000Y22477
X282000Y25977
X282000Y29477
X282000Y32977
X258000Y41977
X309500Y65977
X322500Y68477
X339000Y68477
X339500Y73477
X339500Y78477
X339500Y83477
X318000Y83477
X314000Y90477
X308500Y87977
X328500Y99477
X339000Y105477
X353500Y97977
X350000Y66977
X350000Y62977
X350500Y58477
X352000Y53477
X322500Y49977
X269500Y101477
X269500Y104477
X263500Y108477
X265000Y111477
X220000Y128477
X200500Y129477
X263500Y155977
X266000Y150477
X98000Y144426
X83500Y159977
X80500Y162477
X71500Y154977
X44000Y161477
X39500Y154977
X17500Y154977
X55000Y135977
X65500Y133977
X90000Y125977
X90000Y121977
X42500Y91477
X90000Y76477
X74500Y60428
X77000Y54477
X77000Y47977
X71000Y47977
X88000Y44477
X90500Y41977
X73000Y36477
X66000Y36477
X74100Y30177
X42000Y33477
X42500Y40477
X33000Y43477
X24000Y29477
X19000Y29477
X117000Y25477
X119500Y27977
X122000Y30477
X124500Y33177
X157000Y25477
X159700Y28177
X162200Y30677
X164700Y33177
T03
X181900Y31977
X181900Y29477
X184400Y29477
X184400Y31977
X144900Y31977
X144900Y29477
X142400Y29477
X142400Y31977
X109400Y15977
X109400Y13477
X106900Y13477
X106900Y15977
X51400Y26477
X48400Y26477
X48400Y28977
X51400Y28977
X51900Y41477
X54400Y41477
X54400Y43977
X51900Y43977
X36500Y65477
X33000Y65477
X33000Y68977
X36500Y68977
X23000Y68977
X19500Y68977
X19500Y65477
X23000Y65477
X95900Y67977
X98400Y67977
X98400Y70477
X95900Y70477
X95900Y90477
X98400Y90477
X98400Y92977
X95900Y92977
X95900Y111477
X98400Y111477
X98400Y113977
X95900Y113977
X76500Y114477
X96400Y133977
X98900Y133977
X98900Y136477
X96400Y136477
X76500Y137977
X76500Y150477
X105400Y168477
X107900Y168477
X107900Y170977
X105400Y170977
X108500Y181477
X112800Y184077
X115600Y184077
X109900Y192977
X107400Y192977
X107400Y195477
X109900Y195477
X69900Y196477
X69900Y193977
X67400Y193977
X67400Y196477
X17900Y171477
X17900Y168977
X15400Y168977
X15400Y171477
X16900Y144477
X20400Y144477
X23900Y144477
X23900Y140977
X20400Y140977
X16900Y140977
X16900Y137477
X20400Y137477
X23900Y137477
X27900Y132477
X32400Y137477
X35900Y137477
X39400Y137477
X39400Y140977
X35900Y140977
X32400Y140977
X32400Y144477
X35900Y144477
X39400Y144477
X39400Y127477
X39400Y123977
X35900Y123977
X32400Y123977
X32400Y127477
X35900Y127477
X35900Y120477
X32400Y120477
X39400Y120477
X27900Y111477
X27900Y108477
X23900Y120477
X20400Y120477
X16900Y120477
X16900Y123977
X20400Y123977
X23900Y123977
X23900Y127477
X20400Y127477
X16900Y127477
X137400Y160977
X139900Y161977
X139900Y159477
X142400Y160977
X150900Y174477
X177400Y160977
X179900Y161977
X179900Y159477
X182400Y160977
X207000Y160477
X210000Y170477
X216400Y168977
X220000Y173477
X225900Y170977
X228400Y170977
X228400Y168477
X225900Y168477
X255600Y164177
X260600Y158677
X285600Y156677
X298900Y147477
X278000Y140477
X278000Y135977
X276700Y129177
X259400Y121077
X269900Y118077
X282000Y116977
X294700Y126677
X306700Y113177
X322600Y118477
X317600Y125577
X324300Y92577
X303400Y84977
X303400Y78477
X284200Y85877
X261900Y93477
X261900Y96977
X261900Y100477
X261900Y103977
X280400Y58977
X264400Y46977
X299900Y47477
X306400Y50977
X316900Y43477
X299900Y34977
X271400Y17477
X228900Y29477
X226400Y29477
X226400Y31977
X228900Y31977
X334400Y31977
X334400Y29477
X336900Y29477
X336900Y31977
X347900Y31977
X347900Y29477
X350400Y29477
X350400Y31977
X309900Y167477
X309900Y169977
X309900Y172477
X300400Y172477
X300400Y169977
X291900Y192477
X192600Y181577
X180900Y181977
X159900Y189977
T04
X52000Y109977
X90500Y104977
T05
X115000Y133477
X105000Y134477
X115000Y143477
X105000Y144477
X115000Y153477
X105000Y154477
X125000Y154477
X135000Y153477
X145000Y154477
X155000Y153477
X165000Y154477
X175000Y153477
X185000Y154477
X195000Y153477
X205000Y154477
X215000Y153477
X225000Y154477
X235000Y153477
X245000Y154477
X255000Y153477
X245000Y144477
X255000Y143477
X245000Y134477
X255000Y133477
X235000Y133477
X225000Y134477
X215000Y133477
X205000Y134477
X195000Y133477
X185000Y134477
X175000Y133477
X165000Y134477
X155000Y133477
X145000Y134477
X135000Y133477
X125000Y134477
X135000Y143477
X145000Y144477
X155000Y143477
X165000Y144477
X175000Y143477
X185000Y144477
X195000Y143477
X205000Y144477
X215000Y143477
X225000Y144477
X235000Y143477
X311500Y189477
X321500Y189477
X125000Y144477
X68000Y179477
X58000Y178477
X48000Y179477
X38000Y178477
X28000Y179477
X81000Y189477
X91000Y189477
X105000Y70477
X115000Y69477
X125000Y70477
X135000Y69477
X145000Y70477
X155000Y69477
X165000Y70477
X175000Y69477
X185000Y70477
X195000Y69477
X205000Y70477
X215000Y69477
X225000Y70477
X235000Y69477
X245000Y70477
X255000Y69477
X245000Y60477
X255000Y59477
X255000Y49477
X245000Y50477
X235000Y49477
X225000Y50477
X215000Y49477
X205000Y50477
X195000Y49477
X185000Y50477
X175000Y49477
X165000Y50477
X155000Y49477
X145000Y50477
X135000Y49477
X125000Y50477
X115000Y49477
X105000Y50477
X115000Y59477
X105000Y60477
X125000Y60477
X135000Y59477
X145000Y60477
X155000Y59477
X165000Y60477
X175000Y59477
X185000Y60477
X195000Y59477
X205000Y60477
X215000Y59477
X225000Y60477
X235000Y59477
X311500Y15477
X321500Y15477
X91000Y15477
X81000Y15477
T06
X16500Y16977
X16500Y189477
X341500Y189477
X341500Y16977
T07
X62500Y17977
X37000Y17977
M30
