  0
SECTION
  2
HEADER
  9
$ACADVER
  1
AC1012
  9
$DWGCODEPAGE
  3
undefined
  9
$INSBASE
 10
0.0
 20
0.0
 30
0.0
  9
$EXTMIN
 10
1.000000000000000E+20
 20
1.000000000000000E+20
 30
1.000000000000000E+20
  9
$EXTMAX
 10
-1.000000000000000E+20
 20
-1.000000000000000E+20
 30
-1.000000000000000E+20
  9
$LIMMIN
 10
0.0
 20
0.0
  9
$LIMMAX
 10
12.0
 20
9.0
  9
$ORTHOMODE
 70
     0
  9
$REGENMODE
 70
     1
  9
$FILLMODE
 70
     1
  9
$QTEXTMODE
 70
     0
  9
$MIRRTEXT
 70
     1
  9
$DRAGMODE
 70
     2
  9
$LTSCALE
 40
1.0
  9
$OSMODE
 70
    37
  9
$ATTMODE
 70
     1
  9
$TEXTSIZE
 40
0.2
  9
$TRACEWID
 40
0.05
  9
$TEXTSTYLE
  7
STANDARD
  9
$CLAYER
  8
0
  9
$CELTYPE
  6
BYLAYER
  9
$CECOLOR
 62
   256
  9
$CELTSCALE
 40
1.0
  9
$DELOBJ
 70
     1
  9
$DISPSILH
 70
     0
  9
$DIMSCALE
 40
1.0
  9
$DIMASZ
 40
0.18
  9
$DIMEXO
 40
0.0625
  9
$DIMDLI
 40
0.38
  9
$DIMRND
 40
0.0
  9
$DIMDLE
 40
0.0
  9
$DIMEXE
 40
0.18
  9
$DIMTP
 40
0.0
  9
$DIMTM
 40
0.0
  9
$DIMTXT
 40
0.18
  9
$DIMCEN
 40
0.09
  9
$DIMTSZ
 40
0.0
  9
$DIMTOL
 70
     0
  9
$DIMLIM
 70
     0
  9
$DIMTIH
 70
     1
  9
$DIMTOH
 70
     1
  9
$DIMSE1
 70
     0
  9
$DIMSE2
 70
     0
  9
$DIMTAD
 70
     0
  9
$DIMZIN
 70
     0
  9
$DIMBLK
  1

  9
$DIMASO
 70
     1
  9
$DIMSHO
 70
     1
  9
$DIMPOST
  1

  9
$DIMAPOST
  1

  9
$DIMALT
 70
     0
  9
$DIMALTD
 70
     2
  9
$DIMALTF
 40
25.4
  9
$DIMLFAC
 40
1.0
  9
$DIMTOFL
 70
     0
  9
$DIMTVP
 40
0.0
  9
$DIMTIX
 70
     0
  9
$DIMSOXD
 70
     0
  9
$DIMSAH
 70
     0
  9
$DIMBLK1
  1

  9
$DIMBLK2
  1

  9
$DIMSTYLE
  2
STANDARD
  9
$DIMCLRD
 70
     0
  9
$DIMCLRE
 70
     0
  9
$DIMCLRT
 70
     0
  9
$DIMTFAC
 40
1.0
  9
$DIMGAP
 40
0.09
  9
$DIMJUST
 70
     0
  9
$DIMSD1
 70
     0
  9
$DIMSD2
 70
     0
  9
$DIMTOLJ
 70
     1
  9
$DIMTZIN
 70
     0
  9
$DIMALTZ
 70
     0
  9
$DIMALTTZ
 70
     0
  9
$DIMFIT
 70
     3
  9
$DIMUPT
 70
     0
  9
$DIMUNIT
 70
     2
  9
$DIMDEC
 70
     4
  9
$DIMTDEC
 70
     4
  9
$DIMALTU
 70
     2
  9
$DIMALTTD
 70
     2
  9
$DIMTXSTY
  7
STANDARD
  9
$DIMAUNIT
 70
     0
  9
$LUNITS
 70
     2
  9
$LUPREC
 70
     4
  9
$SKETCHINC
 40
0.1
  9
$FILLETRAD
 40
0.5
  9
$AUNITS
 70
     0
  9
$AUPREC
 70
     0
  9
$MENU
  1
.
  9
$ELEVATION
 40
0.0
  9
$PELEVATION
 40
0.0
  9
$THICKNESS
 40
0.0
  9
$LIMCHECK
 70
     0
  9
$CHAMFERA
 40
0.5
  9
$CHAMFERB
 40
0.5
  9
$CHAMFERC
 40
1.0
  9
$CHAMFERD
 40
0.0
  9
$SKPOLY
 70
     0
  9
$TDCREATE
 40
2457246.380173599
  9
$TDUPDATE
 40
2457246.380185174
  9
$TDINDWG
 40
0.0000000116
  9
$TDUSRTIMER
 40
0.0000000116
  9
$USRTIMER
 70
     1
  9
$ANGBASE
 50
0.0
  9
$ANGDIR
 70
     0
  9
$PDMODE
 70
     0
  9
$PDSIZE
 40
0.0
  9
$PLINEWID
 40
0.0
  9
$COORDS
 70
     1
  9
$SPLFRAME
 70
     0
  9
$SPLINETYPE
 70
     6
  9
$SPLINESEGS
 70
     8
  9
$ATTDIA
 70
     0
  9
$ATTREQ
 70
     1
  9
$HANDLING
 70
     1
  9
$HANDSEED
  5
4E
  9
$SURFTAB1
 70
     6
  9
$SURFTAB2
 70
     6
  9
$SURFTYPE
 70
     6
  9
$SURFU
 70
     6
  9
$SURFV
 70
     6
  9
$UCSNAME
  2

  9
$UCSORG
 10
0.0
 20
0.0
 30
0.0
  9
$UCSXDIR
 10
1.0
 20
0.0
 30
0.0
  9
$UCSYDIR
 10
0.0
 20
1.0
 30
0.0
  9
$PUCSNAME
  2

  9
$PUCSORG
 10
0.0
 20
0.0
 30
0.0
  9
$PUCSXDIR
 10
1.0
 20
0.0
 30
0.0
  9
$PUCSYDIR
 10
0.0
 20
1.0
 30
0.0
  9
$USERI1
 70
     0
  9
$USERI2
 70
     0
  9
$USERI3
 70
     0
  9
$USERI4
 70
     0
  9
$USERI5
 70
     0
  9
$USERR1
 40
0.0
  9
$USERR2
 40
0.0
  9
$USERR3
 40
0.0
  9
$USERR4
 40
0.0
  9
$USERR5
 40
0.0
  9
$WORLDVIEW
 70
     1
  9
$SHADEDGE
 70
     3
  9
$SHADEDIF
 70
    70
  9
$TILEMODE
 70
     1
  9
$MAXACTVP
 70
    64
  9
$PINSBASE
 10
0.0
 20
0.0
 30
0.0
  9
$PLIMCHECK
 70
     0
  9
$PEXTMIN
 10
1.000000000000000E+20
 20
1.000000000000000E+20
 30
1.000000000000000E+20
  9
$PEXTMAX
 10
-1.000000000000000E+20
 20
-1.000000000000000E+20
 30
-1.000000000000000E+20
  9
$PLIMMIN
 10
0.0
 20
0.0
  9
$PLIMMAX
 10
12.0
 20
9.0
  9
$UNITMODE
 70
     0
  9
$VISRETAIN
 70
     1
  9
$PLINEGEN
 70
     0
  9
$PSLTSCALE
 70
     1
  9
$TREEDEPTH
 70
  3020
  9
$PICKSTYLE
 70
     1
  9
$CMLSTYLE
  2
STANDARD
  9
$CMLJUST
 70
     0
  9
$CMLSCALE
 40
1.0
  9
$SAVEIMAGES
 70
     1
  0
ENDSEC
  0
SECTION
  2
CLASSES
  0
CLASS
  1
ACDBDICTIONARYWDFLT
  2
AcDbDictionaryWithDefault
  3
ObjectDBX Classes
 90
    32768
280
     0
281
     0
  0
CLASS
  1
VISUALSTYLE
  2
AcDbVisualStyle
  3
ObjectDBX Classes
 90
     4095
280
     0
281
     0
  0
CLASS
  1
MATERIAL
  2
AcDbMaterial
  3
ObjectDBX Classes
 90
     1153
280
     0
281
     0
  0
CLASS
  1
SUN
  2
AcDbSun
  3
SCENEOE
 90
     1024
280
     0
281
     0
  0
CLASS
  1
DICTIONARYVAR
  2
AcDbDictionaryVar
  3
ObjectDBX Classes
 90
        0
280
     0
281
     0
  0
CLASS
  1
XRECORD
  2
AcDbXrecord
  3
AutoCAD 2000
 90
    32768
280
     0
281
     0
  0
CLASS
  1
LWPOLYLINE
  2
AcDbPolyline
  3
AutoCAD 2000
 90
    32768
280
     0
281
     1
  0
CLASS
  1
HATCH
  2
AcDbHatch
  3
AutoCAD 2000
 90
    32768
280
     0
281
     1
  0
CLASS
  1
ACDBPLACEHOLDER
  2
AcDbPlaceHolder
  3
ObjectDBX Classes
 90
        0
280
     0
281
     0
  0
CLASS
  1
LAYOUT
  2
AcDbLayout
  3
ObjectDBX Classes
 90
        0
280
     0
281
     0
  0
ENDSEC
  0
SECTION
  2
TABLES
  0
TABLE
  2
VPORT
  5
8
330
0
100
AcDbSymbolTable
 70
     1
  0
VPORT
  5
29
330
8
100
AcDbSymbolTableRecord
100
AcDbViewportTableRecord
  2
*ACTIVE
 70
     0
 10
0.0
 20
0.0
 11
1.0
 21
1.0
 12
0.0
 22
0.0
 13
0.0
 23
0.0
 14
0.5
 24
0.5
 15
0.5
 25
0.5
 16
0.0
 26
0.0
 36
1.0
 17
105.0007777515277
 27
-148.5000416295416
 37
0.0
 40
297.0000832590831
 41
0.7070757462376333
 42
50.0
 43
0.0
 44
0.0
 50
0.0
 51
0.0
 71
     0
 72
   100
 73
     1
 74
     3
 75
     0
 76
     0
 77
     0
 78
     0
  0
ENDTAB
  0
TABLE
  2
LTYPE
  5
5
330
0
100
AcDbSymbolTable
 70
     1
  0
LTYPE
  5
14
330
5
100
AcDbSymbolTableRecord
100
AcDbLinetypeTableRecord
  2
BYBLOCK
 70
     0
  3

 72
    65
 73
     0
 40
0.0
  0
LTYPE
  5
15
330
5
100
AcDbSymbolTableRecord
100
AcDbLinetypeTableRecord
  2
BYLAYER
 70
     0
  3

 72
    65
 73
     0
 40
0.0
  0
LTYPE
  5
16
330
5
100
AcDbSymbolTableRecord
100
AcDbLinetypeTableRecord
  2
CONTINUOUS
 70
     0
  3
Solid line
 72
    65
 73
     0
 40
0.0
  0
ENDTAB
  0
TABLE
  2
LAYER
  5
2
330
0
100
AcDbSymbolTable
 70
     2
  0
LAYER
  5
10
330
2
100
AcDbSymbolTableRecord
100
AcDbLayerTableRecord
  2
0
 70
     0
 62
     7
  6
CONTINUOUS
  0
LAYER
  5
40
330
2
100
AcDbSymbolTableRecord
100
AcDbLayerTableRecord
  2
LIVELLO_1
 70
     0
 62
     7
  6
CONTINUOUS
  0
ENDTAB
  0
TABLE
  2
STYLE
  5
3
330
0
100
AcDbSymbolTable
 70
     1
  0
STYLE
  5
11
330
3
100
AcDbSymbolTableRecord
100
AcDbTextStyleTableRecord
  2
STANDARD
 70
     0
 40
0.0
 41
1.0
 50
0.0
 71
     0
 42
0.2
  3
txt
  4

  0
ENDTAB
  0
TABLE
  2
VIEW
  5
6
330
0
100
AcDbSymbolTable
 70
     0
  0
ENDTAB
  0
TABLE
  2
UCS
  5
7
330
0
100
AcDbSymbolTable
 70
     0
  0
ENDTAB
  0
TABLE
  2
APPID
  5
9
330
0
100
AcDbSymbolTable
 70
     1
  0
APPID
  5
12
330
9
100
AcDbSymbolTableRecord
100
AcDbRegAppTableRecord
  2
ACAD
 70
     0
  0
ENDTAB
  0
TABLE
  2
DIMSTYLE
  5
A
330
0
100
AcDbSymbolTable
 70
     1
  0
DIMSTYLE
105
27
330
A
100
AcDbSymbolTableRecord
100
AcDbDimStyleTableRecord
  2
STANDARD
 70
     0
  3

  4

  5

  6

  7

 40
1.0
 41
0.18
 42
0.0625
 43
0.38
 44
0.18
 45
0.0
 46
0.0
 47
0.0
 48
0.0
140
0.18
141
0.09
142
0.0
143
25.4
144
1.0
145
0.0
146
1.0
147
0.09
 71
     0
 72
     0
 73
     1
 74
     1
 75
     0
 76
     0
 77
     0
 78
     0
170
     0
171
     2
172
     0
173
     0
174
     0
175
     0
176
     0
177
     0
178
     0
270
     2
271
     4
272
     4
273
     2
274
     2
340
11
275
     0
280
     0
281
     0
282
     0
283
     1
284
     0
285
     0
286
     0
287
     3
288
     0
  0
ENDTAB
  0
TABLE
  2
BLOCK_RECORD
  5
1
330
0
100
AcDbSymbolTable
 70
     1
  0
BLOCK_RECORD
  5
1F
330
1
100
AcDbSymbolTableRecord
100
AcDbBlockTableRecord
  2
*MODEL_SPACE
  0
BLOCK_RECORD
  5
1B
330
1
100
AcDbSymbolTableRecord
100
AcDbBlockTableRecord
  2
*PAPER_SPACE
  0
ENDTAB
  0
ENDSEC
  0
SECTION
  2
BLOCKS
  0
BLOCK
  5
20
330
1F
100
AcDbEntity
  8
0
100
AcDbBlockBegin
  2
*MODEL_SPACE
 70
     0
 10
0.0
 20
0.0
 30
0.0
  3
*MODEL_SPACE
  1

  0
ENDBLK
  5
21
330
1F
100
AcDbEntity
  8
0
100
AcDbBlockEnd
  0
BLOCK
  5
1C
330
1B
100
AcDbEntity
 67
     1
  8
0
100
AcDbBlockBegin
  2
*PAPER_SPACE
 70
     0
 10
0.0
 20
0.0
 30
0.0
  3
*PAPER_SPACE
  1

  0
ENDBLK
  5
1D
330
1B
100
AcDbEntity
 67
     1
  8
0
100
AcDbBlockEnd
  0
ENDSEC
  0
SECTION
  2
ENTITIES
  0
SPLINE
  5
41
330
1F
100
AcDbEntity
  8
LIVELLO_1
 62
   250
100
AcDbSpline
210
0.0
220
0.0
230
1.0
 70
    11
 71
     3
 72
   197
 73
   193
 74
     0
 42
0.0000000001
 43
0.0000000001
 12
1.0
 22
0.0
 32
0.0
 13
1.0
 23
0.0
 33
0.0
 40
0.0
 40
0.0
 40
0.0
 40
0.0
 40
1.0
 40
1.0
 40
1.0
 40
2.0
 40
2.0
 40
2.0
 40
3.0
 40
3.0
 40
3.0
 40
4.0
 40
4.0
 40
4.0
 40
5.0
 40
5.0
 40
5.0
 40
6.0
 40
6.0
 40
6.0
 40
7.0
 40
7.0
 40
7.0
 40
8.0
 40
8.0
 40
8.0
 40
9.0
 40
9.0
 40
9.0
 40
10.0
 40
10.0
 40
10.0
 40
11.0
 40
11.0
 40
11.0
 40
12.0
 40
12.0
 40
12.0
 40
13.0
 40
13.0
 40
13.0
 40
14.0
 40
14.0
 40
14.0
 40
15.0
 40
15.0
 40
15.0
 40
16.0
 40
16.0
 40
16.0
 40
17.0
 40
17.0
 40
17.0
 40
18.0
 40
18.0
 40
18.0
 40
19.0
 40
19.0
 40
19.0
 40
20.0
 40
20.0
 40
20.0
 40
21.0
 40
21.0
 40
21.0
 40
22.0
 40
22.0
 40
22.0
 40
23.0
 40
23.0
 40
23.0
 40
24.0
 40
24.0
 40
24.0
 40
25.0
 40
25.0
 40
25.0
 40
26.0
 40
26.0
 40
26.0
 40
27.0
 40
27.0
 40
27.0
 40
28.0
 40
28.0
 40
28.0
 40
29.0
 40
29.0
 40
29.0
 40
30.0
 40
30.0
 40
30.0
 40
31.0
 40
31.0
 40
31.0
 40
32.0
 40
32.0
 40
32.0
 40
33.0
 40
33.0
 40
33.0
 40
34.0
 40
34.0
 40
34.0
 40
35.0
 40
35.0
 40
35.0
 40
36.0
 40
36.0
 40
36.0
 40
37.0
 40
37.0
 40
37.0
 40
38.0
 40
38.0
 40
38.0
 40
39.0
 40
39.0
 40
39.0
 40
40.0
 40
40.0
 40
40.0
 40
41.0
 40
41.0
 40
41.0
 40
42.0
 40
42.0
 40
42.0
 40
43.0
 40
43.0
 40
43.0
 40
44.0
 40
44.0
 40
44.0
 40
45.0
 40
45.0
 40
45.0
 40
46.0
 40
46.0
 40
46.0
 40
47.0
 40
47.0
 40
47.0
 40
48.0
 40
48.0
 40
48.0
 40
49.0
 40
49.0
 40
49.0
 40
50.0
 40
50.0
 40
50.0
 40
51.0
 40
51.0
 40
51.0
 40
52.0
 40
52.0
 40
52.0
 40
53.0
 40
53.0
 40
53.0
 40
54.0
 40
54.0
 40
54.0
 40
55.0
 40
55.0
 40
55.0
 40
56.0
 40
56.0
 40
56.0
 40
57.0
 40
57.0
 40
57.0
 40
58.0
 40
58.0
 40
58.0
 40
59.0
 40
59.0
 40
59.0
 40
60.0
 40
60.0
 40
60.0
 40
61.0
 40
61.0
 40
61.0
 40
62.0
 40
62.0
 40
62.0
 40
63.0
 40
63.0
 40
63.0
 40
64.0
 40
64.0
 40
64.0
 40
64.0
 10
160.2027777377272
 20
-123.8472208349236
 30
0.0
 10
160.2027777377272
 20
-123.9847208429193
 30
0.0
 10
160.1887151718446
 20
-124.1190958701011
 30
0.0
 10
160.1619572439259
 20
-124.2489787240474
 30
0.0
 10
160.1351993160066
 20
-124.3788615779937
 30
0.0
 10
160.095746026051
 20
-124.5042522587045
 30
0.0
 10
160.0449645779038
 20
-124.6237835737587
 30
0.0
 10
159.9941831297571
 20
-124.7433148888129
 30
0.0
 10
159.9320735234193
 20
-124.85698683821
 30
0.0
 10
159.8600029627361
 20
-124.9634322295287
 30
0.0
 10
159.7879324020529
 20
-125.0698776208477
 30
0.0
 10
159.7059008870236
 20
-125.1690964540881
 30
0.0
 10
159.6152756214952
 20
-125.2597215368292
 30
0.0
 10
159.5246503559668
 20
-125.3503466195699
 30
0.0
 10
159.4254313399381
 20
-125.4323779518109
 30
0.0
 10
159.3189857772559
 20
-125.504448341131
 30
0.0
 10
159.2125402145738
 20
-125.576518730451
 30
0.0
 10
159.0988681052376
 20
-125.6386281768498
 30
0.0
 10
158.9793366530931
 20
-125.6894094879058
 30
0.0
 10
158.8598052009479
 20
-125.7401907989622
 30
0.0
 10
158.7344144059951
 20
-125.7796439746757
 30
0.0
 10
158.604531472079
 20
-125.8064018226252
 30
0.0
 10
158.4746485381635
 20
-125.8331596705748
 30
0.0
 10
158.3402734652848
 20
-125.8472221907603
 30
0.0
 10
158.2027734572891
 20
-125.8472221907603
 30
0.0
 10
158.2027734572891
 20
-125.8472221907603
 30
0.0
 10
147.4527745302109
 20
-125.8472221907603
 30
0.0
 10
147.4527745302109
 20
-125.8472221907603
 30
0.0
 10
147.4527745302109
 20
-125.8472221907603
 30
0.0
 10
136.7027756031328
 20
-125.8472221907603
 30
0.0
 10
136.7027756031328
 20
-125.8472221907603
 30
0.0
 10
136.7027756031328
 20
-125.8472221907603
 30
0.0
 10
125.9527766760546
 20
-125.8472221907603
 30
0.0
 10
125.9527766760546
 20
-125.8472221907603
 30
0.0
 10
125.9527766760546
 20
-125.8472221907603
 30
0.0
 10
115.2027777489771
 20
-125.8472221907603
 30
0.0
 10
115.2027777489771
 20
-125.8472221907603
 30
0.0
 10
115.2027777489771
 20
-125.8472221907603
 30
0.0
 10
104.452778821899
 20
-125.8472221907603
 30
0.0
 10
104.452778821899
 20
-125.8472221907603
 30
0.0
 10
104.452778821899
 20
-125.8472221907603
 30
0.0
 10
93.70277989482116
 20
-125.8472221907603
 30
0.0
 10
93.70277989482116
 20
-125.8472221907603
 30
0.0
 10
93.70277989482116
 20
-125.8472221907603
 30
0.0
 10
82.95278096774334
 20
-125.8472221907603
 30
0.0
 10
82.95278096774334
 20
-125.8472221907603
 30
0.0
 10
82.95278096774334
 20
-125.8472221907603
 30
0.0
 10
72.2027820406652
 20
-125.8472221907603
 30
0.0
 10
72.2027820406652
 20
-125.8472221907603
 30
0.0
 10
72.0652820326695
 20
-125.8472221907603
 30
0.0
 10
71.93090695979075
 20
-125.8331596705748
 30
0.0
 10
71.80102402587495
 20
-125.8064018226252
 30
0.0
 10
71.67114109195914
 20
-125.7796439746757
 30
0.0
 10
71.54575029700598
 20
-125.7401907989622
 30
0.0
 10
71.42621884486115
 20
-125.6894094879058
 30
0.0
 10
71.30668739271664
 20
-125.6386281768498
 30
0.0
 10
71.19301528338015
 20
-125.576518730451
 30
0.0
 10
71.08656972069801
 20
-125.504448341131
 30
0.0
 10
70.98012415801554
 20
-125.4323779518109
 30
0.0
 10
70.88090514198744
 20
-125.3503466195699
 30
0.0
 10
70.79027987645905
 20
-125.2597215368292
 30
0.0
 10
70.69965461093068
 20
-125.1690964540881
 30
0.0
 10
70.61762309590203
 20
-125.0698776208477
 30
0.0
 10
70.54555253521849
 20
-124.9634322295287
 30
0.0
 10
70.47348197453528
 20
-124.85698683821
 30
0.0
 10
70.41137236819716
 20
-124.7433148888129
 30
0.0
 10
70.3605909200505
 20
-124.6237835737587
 30
0.0
 10
70.30980947190352
 20
-124.5042522587045
 30
0.0
 10
70.27035618194766
 20
-124.3788615779937
 30
0.0
 10
70.24359825402864
 20
-124.2489787240474
 30
0.0
 10
70.2168403261096
 20
-124.1190958701011
 30
0.0
 10
70.2027777602271
 20
-123.9847208429193
 30
0.0
 10
70.2027777602271
 20
-123.8472208349236
 30
0.0
 10
70.2027777602271
 20
-123.8472208349236
 30
0.0
 10
70.2027777602271
 20
-118.0972211754453
 30
0.0
 10
70.2027777602271
 20
-118.0972211754453
 30
0.0
 10
70.2027777602271
 20
-118.0972211754453
 30
0.0
 10
70.2027777602271
 20
-112.3472215159671
 30
0.0
 10
70.2027777602271
 20
-112.3472215159671
 30
0.0
 10
70.2027777602271
 20
-112.3472215159671
 30
0.0
 10
70.2027777602271
 20
-106.5972218564888
 30
0.0
 10
70.2027777602271
 20
-106.5972218564888
 30
0.0
 10
70.2027777602271
 20
-106.5972218564888
 30
0.0
 10
70.2027777602271
 20
-100.8472221970105
 30
0.0
 10
70.2027777602271
 20
-100.8472221970105
 30
0.0
 10
70.2027777602271
 20
-100.8472221970105
 30
0.0
 10
70.2027777602271
 20
-95.09722253753223
 30
0.0
 10
70.2027777602271
 20
-95.09722253753223
 30
0.0
 10
70.2027777602271
 20
-95.09722253753223
 30
0.0
 10
70.2027777602271
 20
-89.34722287805396
 30
0.0
 10
70.2027777602271
 20
-89.34722287805396
 30
0.0
 10
70.2027777602271
 20
-89.34722287805396
 30
0.0
 10
70.2027777602271
 20
-83.59722321857537
 30
0.0
 10
70.2027777602271
 20
-83.59722321857537
 30
0.0
 10
70.2027777602271
 20
-83.59722321857537
 30
0.0
 10
70.2027777602271
 20
-77.84722355909709
 30
0.0
 10
70.2027777602271
 20
-77.84722355909709
 30
0.0
 10
70.2027777602271
 20
-77.70972355110139
 30
0.0
 10
70.2168403261096
 20
-77.57534852391963
 30
0.0
 10
70.24359825402864
 20
-77.44546566997332
 30
0.0
 10
70.27035618194766
 20
-77.31558281602702
 30
0.0
 10
70.30980947190352
 20
-77.19019213531618
 30
0.0
 10
70.3605909200505
 20
-77.070660820262
 30
0.0
 10
70.41137236819716
 20
-76.95112950520816
 30
0.0
 10
70.47348197453528
 20
-76.83745755581097
 30
0.0
 10
70.54555253521849
 20
-76.731012164492
 30
0.0
 10
70.61762309590203
 20
-76.62456677317302
 30
0.0
 10
70.69965461093068
 20
-76.52534793993256
 30
0.0
 10
70.79027987645905
 20
-76.43472285719183
 30
0.0
 10
70.88090514198744
 20
-76.34409777445077
 30
0.0
 10
70.98012415801554
 20
-76.26206644220979
 30
0.0
 10
71.08656972069801
 20
-76.18999605288973
 30
0.0
 10
71.19301528338015
 20
-76.11792566356999
 30
0.0
 10
71.30668739271664
 20
-76.0558162171712
 30
0.0
 10
71.42621884486115
 20
-76.00503490611487
 30
0.0
 10
71.54575029700598
 20
-75.95425359505855
 30
0.0
 10
71.67114109195914
 20
-75.91480041934501
 30
0.0
 10
71.80102402587495
 20
-75.88804257139549
 30
0.0
 10
71.93090695979075
 20
-75.86128472344595
 30
0.0
 10
72.0652820326695
 20
-75.84722220326042
 30
0.0
 10
72.2027820406652
 20
-75.84722220326042
 30
0.0
 10
72.2027820406652
 20
-75.84722220326042
 30
0.0
 10
82.95278096774334
 20
-75.84722220326042
 30
0.0
 10
82.95278096774334
 20
-75.84722220326042
 30
0.0
 10
82.95278096774334
 20
-75.84722220326042
 30
0.0
 10
93.70277989482116
 20
-75.84722220326042
 30
0.0
 10
93.70277989482116
 20
-75.84722220326042
 30
0.0
 10
93.70277989482116
 20
-75.84722220326042
 30
0.0
 10
104.452778821899
 20
-75.84722220326042
 30
0.0
 10
104.452778821899
 20
-75.84722220326042
 30
0.0
 10
104.452778821899
 20
-75.84722220326042
 30
0.0
 10
115.2027777489771
 20
-75.84722220326042
 30
0.0
 10
115.2027777489771
 20
-75.84722220326042
 30
0.0
 10
115.2027777489771
 20
-75.84722220326042
 30
0.0
 10
125.9527766760546
 20
-75.84722220326042
 30
0.0
 10
125.9527766760546
 20
-75.84722220326042
 30
0.0
 10
125.9527766760546
 20
-75.84722220326042
 30
0.0
 10
136.7027756031328
 20
-75.84722220326042
 30
0.0
 10
136.7027756031328
 20
-75.84722220326042
 30
0.0
 10
136.7027756031328
 20
-75.84722220326042
 30
0.0
 10
147.4527745302109
 20
-75.84722220326042
 30
0.0
 10
147.4527745302109
 20
-75.84722220326042
 30
0.0
 10
147.4527745302109
 20
-75.84722220326042
 30
0.0
 10
158.2027734572891
 20
-75.84722220326042
 30
0.0
 10
158.2027734572891
 20
-75.84722220326042
 30
0.0
 10
158.3402734652848
 20
-75.84722220326042
 30
0.0
 10
158.4746485381635
 20
-75.86128472344595
 30
0.0
 10
158.604531472079
 20
-75.88804257139549
 30
0.0
 10
158.7344144059951
 20
-75.91480041934501
 30
0.0
 10
158.8598052009479
 20
-75.95425359505855
 30
0.0
 10
158.9793366530931
 20
-76.00503490611487
 30
0.0
 10
159.0988681052376
 20
-76.0558162171712
 30
0.0
 10
159.2125402145738
 20
-76.11792566356999
 30
0.0
 10
159.3189857772559
 20
-76.18999605288973
 30
0.0
 10
159.4254313399381
 20
-76.26206644220979
 30
0.0
 10
159.5246503559668
 20
-76.34409777445077
 30
0.0
 10
159.6152756214952
 20
-76.43472285719183
 30
0.0
 10
159.7059008870236
 20
-76.52534793993256
 30
0.0
 10
159.7879324020529
 20
-76.62456677317302
 30
0.0
 10
159.8600029627361
 20
-76.731012164492
 30
0.0
 10
159.9320735234193
 20
-76.83745755581097
 30
0.0
 10
159.9941831297571
 20
-76.95112950520816
 30
0.0
 10
160.0449645779038
 20
-77.070660820262
 30
0.0
 10
160.095746026051
 20
-77.19019213531618
 30
0.0
 10
160.1351993160066
 20
-77.31558281602702
 30
0.0
 10
160.1619572439259
 20
-77.44546566997332
 30
0.0
 10
160.1887151718446
 20
-77.57534852391963
 30
0.0
 10
160.2027777377272
 20
-77.70972355110139
 30
0.0
 10
160.2027777377272
 20
-77.84722355909709
 30
0.0
 10
160.2027777377272
 20
-77.84722355909709
 30
0.0
 10
160.2027777377272
 20
-83.59722321857537
 30
0.0
 10
160.2027777377272
 20
-83.59722321857537
 30
0.0
 10
160.2027777377272
 20
-83.59722321857537
 30
0.0
 10
160.2027777377272
 20
-89.34722287805396
 30
0.0
 10
160.2027777377272
 20
-89.34722287805396
 30
0.0
 10
160.2027777377272
 20
-89.34722287805396
 30
0.0
 10
160.2027777377272
 20
-95.09722253753223
 30
0.0
 10
160.2027777377272
 20
-95.09722253753223
 30
0.0
 10
160.2027777377272
 20
-95.09722253753223
 30
0.0
 10
160.2027777377272
 20
-100.8472221970105
 30
0.0
 10
160.2027777377272
 20
-100.8472221970105
 30
0.0
 10
160.2027777377272
 20
-100.8472221970105
 30
0.0
 10
160.2027777377272
 20
-106.5972218564888
 30
0.0
 10
160.2027777377272
 20
-106.5972218564888
 30
0.0
 10
160.2027777377272
 20
-106.5972218564888
 30
0.0
 10
160.2027777377272
 20
-112.3472215159671
 30
0.0
 10
160.2027777377272
 20
-112.3472215159671
 30
0.0
 10
160.2027777377272
 20
-112.3472215159671
 30
0.0
 10
160.2027777377272
 20
-118.0972211754453
 30
0.0
 10
160.2027777377272
 20
-118.0972211754453
 30
0.0
 10
160.2027777377272
 20
-118.0972211754453
 30
0.0
 10
160.2027777377272
 20
-123.8472208349236
 30
0.0
 10
160.2027777377272
 20
-123.8472208349236
 30
0.0
  0
SPLINE
  5
42
330
1F
100
AcDbEntity
  8
LIVELLO_1
 62
   250
100
AcDbSpline
210
0.0
220
0.0
230
1.0
 70
    11
 71
     3
 72
   197
 73
   193
 74
     0
 42
0.0000000001
 43
0.0000000001
 12
1.0
 22
0.0
 32
0.0
 13
1.0
 23
0.0
 33
0.0
 40
0.0
 40
0.0
 40
0.0
 40
0.0
 40
1.0
 40
1.0
 40
1.0
 40
2.0
 40
2.0
 40
2.0
 40
3.0
 40
3.0
 40
3.0
 40
4.0
 40
4.0
 40
4.0
 40
5.0
 40
5.0
 40
5.0
 40
6.0
 40
6.0
 40
6.0
 40
7.0
 40
7.0
 40
7.0
 40
8.0
 40
8.0
 40
8.0
 40
9.0
 40
9.0
 40
9.0
 40
10.0
 40
10.0
 40
10.0
 40
11.0
 40
11.0
 40
11.0
 40
12.0
 40
12.0
 40
12.0
 40
13.0
 40
13.0
 40
13.0
 40
14.0
 40
14.0
 40
14.0
 40
15.0
 40
15.0
 40
15.0
 40
16.0
 40
16.0
 40
16.0
 40
17.0
 40
17.0
 40
17.0
 40
18.0
 40
18.0
 40
18.0
 40
19.0
 40
19.0
 40
19.0
 40
20.0
 40
20.0
 40
20.0
 40
21.0
 40
21.0
 40
21.0
 40
22.0
 40
22.0
 40
22.0
 40
23.0
 40
23.0
 40
23.0
 40
24.0
 40
24.0
 40
24.0
 40
25.0
 40
25.0
 40
25.0
 40
26.0
 40
26.0
 40
26.0
 40
27.0
 40
27.0
 40
27.0
 40
28.0
 40
28.0
 40
28.0
 40
29.0
 40
29.0
 40
29.0
 40
30.0
 40
30.0
 40
30.0
 40
31.0
 40
31.0
 40
31.0
 40
32.0
 40
32.0
 40
32.0
 40
33.0
 40
33.0
 40
33.0
 40
34.0
 40
34.0
 40
34.0
 40
35.0
 40
35.0
 40
35.0
 40
36.0
 40
36.0
 40
36.0
 40
37.0
 40
37.0
 40
37.0
 40
38.0
 40
38.0
 40
38.0
 40
39.0
 40
39.0
 40
39.0
 40
40.0
 40
40.0
 40
40.0
 40
41.0
 40
41.0
 40
41.0
 40
42.0
 40
42.0
 40
42.0
 40
43.0
 40
43.0
 40
43.0
 40
44.0
 40
44.0
 40
44.0
 40
45.0
 40
45.0
 40
45.0
 40
46.0
 40
46.0
 40
46.0
 40
47.0
 40
47.0
 40
47.0
 40
48.0
 40
48.0
 40
48.0
 40
49.0
 40
49.0
 40
49.0
 40
50.0
 40
50.0
 40
50.0
 40
51.0
 40
51.0
 40
51.0
 40
52.0
 40
52.0
 40
52.0
 40
53.0
 40
53.0
 40
53.0
 40
54.0
 40
54.0
 40
54.0
 40
55.0
 40
55.0
 40
55.0
 40
56.0
 40
56.0
 40
56.0
 40
57.0
 40
57.0
 40
57.0
 40
58.0
 40
58.0
 40
58.0
 40
59.0
 40
59.0
 40
59.0
 40
60.0
 40
60.0
 40
60.0
 40
61.0
 40
61.0
 40
61.0
 40
62.0
 40
62.0
 40
62.0
 40
63.0
 40
63.0
 40
63.0
 40
64.0
 40
64.0
 40
64.0
 40
64.0
 10
135.2027777439771
 20
-103.8472224187844
 30
0.0
 10
135.2027777439771
 20
-103.9847224267801
 30
0.0
 10
135.1887152562432
 20
-104.119097429292
 30
0.0
 10
135.1619574650834
 20
-104.2489802400664
 30
0.0
 10
135.1351996739236
 20
-104.3788630508408
 30
0.0
 10
135.0957465793385
 20
-104.5042536698777
 30
0.0
 10
135.0449653656366
 20
-104.6237849109224
 30
0.0
 10
134.9941841519346
 20
-104.7433161519672
 30
0.0
 10
134.9320748191159
 20
-104.8569880150206
 30
0.0
 10
134.860004551489
 20
-104.963433313828
 30
0.0
 10
134.787934283862
 20
-105.0698786126355
 30
0.0
 10
134.7059030814261
 20
-105.1690973471974
 30
0.0
 10
134.6152781284912
 20
-105.2597223312596
 30
0.0
 10
134.5246531755562
 20
-105.3503473153215
 30
0.0
 10
134.4254344721209
 20
-105.4323785488839
 30
0.0
 10
134.318989202495
 20
-105.5044488456925
 30
0.0
 10
134.2125439328691
 20
-105.576519142501
 30
0.0
 10
134.098872097052
 20
-105.6386285025557
 30
0.0
 10
133.9793408793522
 20
-105.6894097396029
 30
0.0
 10
133.8598096616525
 20
-105.7401909766502
 30
0.0
 10
133.73441906207
 20
-105.7796440906894
 30
0.0
 10
133.6045362649135
 20
-105.806401895467
 30
0.0
 10
133.4746534677569
 20
-105.8331597002446
 30
0.0
 10
133.3402784730268
 20
-105.8472221957603
 30
0.0
 10
133.2027784650311
 20
-105.8472221957603
 30
0.0
 10
133.2027784650311
 20
-105.8472221957603
 30
0.0
 10
128.7027782860178
 20
-105.8472221957603
 30
0.0
 10
128.7027782860178
 20
-105.8472221957603
 30
0.0
 10
128.7027782860178
 20
-105.8472221957603
 30
0.0
 10
124.2027781070044
 20
-105.8472221957603
 30
0.0
 10
124.2027781070044
 20
-105.8472221957603
 30
0.0
 10
124.2027781070044
 20
-105.8472221957603
 30
0.0
 10
119.7027779279905
 20
-105.8472221957603
 30
0.0
 10
119.7027779279905
 20
-105.8472221957603
 30
0.0
 10
119.7027779279905
 20
-105.8472221957603
 30
0.0
 10
115.2027777489771
 20
-105.8472221957603
 30
0.0
 10
115.2027777489771
 20
-105.8472221957603
 30
0.0
 10
115.2027777489771
 20
-105.8472221957603
 30
0.0
 10
110.7027775699638
 20
-105.8472221957603
 30
0.0
 10
110.7027775699638
 20
-105.8472221957603
 30
0.0
 10
110.7027775699638
 20
-105.8472221957603
 30
0.0
 10
106.2027773909498
 20
-105.8472221957603
 30
0.0
 10
106.2027773909498
 20
-105.8472221957603
 30
0.0
 10
106.2027773909498
 20
-105.8472221957603
 30
0.0
 10
101.7027772119365
 20
-105.8472221957603
 30
0.0
 10
101.7027772119365
 20
-105.8472221957603
 30
0.0
 10
101.7027772119365
 20
-105.8472221957603
 30
0.0
 10
97.20277703292314
 20
-105.8472221957603
 30
0.0
 10
97.20277703292314
 20
-105.8472221957603
 30
0.0
 10
97.06527702492744
 20
-105.8472221957603
 30
0.0
 10
96.93090203019705
 20
-105.8331597002446
 30
0.0
 10
96.80101923304078
 20
-105.806401895467
 30
0.0
 10
96.67113643588452
 20
-105.7796440906894
 30
0.0
 10
96.54574583630209
 20
-105.7401909766502
 30
0.0
 10
96.42621461860232
 20
-105.6894097396029
 30
0.0
 10
96.30668340090256
 20
-105.6386285025557
 30
0.0
 10
96.19301156508547
 20
-105.576519142501
 30
0.0
 10
96.08656629545925
 20
-105.5044488456925
 30
0.0
 10
95.98012102583336
 20
-105.4323785488839
 30
0.0
 10
95.88090232239836
 20
-105.3503473153215
 30
0.0
 10
95.79027736946307
 20
-105.2597223312596
 30
0.0
 10
95.6996524165278
 20
-105.1690973471974
 30
0.0
 10
95.61762121409225
 20
-105.0698786126355
 30
0.0
 10
95.54555094646528
 20
-104.963433313828
 30
0.0
 10
95.47348067883799
 20
-104.8569880150206
 30
0.0
 10
95.41137134601928
 20
-104.7433161519672
 30
0.0
 10
95.36059013231737
 20
-104.6237849109224
 30
0.0
 10
95.30980891861545
 20
-104.5042536698777
 30
0.0
 10
95.27035582403032
 20
-104.3788630508408
 30
0.0
 10
95.24359803287084
 20
-104.2489802400664
 30
0.0
 10
95.21684024171135
 20
-104.119097429292
 30
0.0
 10
95.20277775397717
 20
-103.9847224267801
 30
0.0
 10
95.20277775397717
 20
-103.8472224187844
 30
0.0
 10
95.20277775397717
 20
-103.8472224187844
 30
0.0
 10
95.20277775397717
 20
-103.0972223633411
 30
0.0
 10
95.20277775397717
 20
-103.0972223633411
 30
0.0
 10
95.20277775397717
 20
-103.0972223633411
 30
0.0
 10
95.20277775397717
 20
-102.3472223078974
 30
0.0
 10
95.20277775397717
 20
-102.3472223078974
 30
0.0
 10
95.20277775397717
 20
-102.3472223078974
 30
0.0
 10
95.20277775397717
 20
-101.5972222524538
 30
0.0
 10
95.20277775397717
 20
-101.5972222524538
 30
0.0
 10
95.20277775397717
 20
-101.5972222524538
 30
0.0
 10
95.20277775397717
 20
-100.8472221970105
 30
0.0
 10
95.20277775397717
 20
-100.8472221970105
 30
0.0
 10
95.20277775397717
 20
-100.8472221970105
 30
0.0
 10
95.20277775397717
 20
-100.0972221415669
 30
0.0
 10
95.20277775397717
 20
-100.0972221415669
 30
0.0
 10
95.20277775397717
 20
-100.0972221415669
 30
0.0
 10
95.20277775397717
 20
-99.34722208612327
 30
0.0
 10
95.20277775397717
 20
-99.34722208612327
 30
0.0
 10
95.20277775397717
 20
-99.34722208612327
 30
0.0
 10
95.20277775397717
 20
-98.59722203067996
 30
0.0
 10
95.20277775397717
 20
-98.59722203067996
 30
0.0
 10
95.20277775397717
 20
-98.59722203067996
 30
0.0
 10
95.20277775397717
 20
-97.84722197523634
 30
0.0
 10
95.20277775397717
 20
-97.84722197523634
 30
0.0
 10
95.20277775397717
 20
-97.70972196724064
 30
0.0
 10
95.21684024171135
 20
-97.57534696472867
 30
0.0
 10
95.24359803287084
 20
-97.44546415395428
 30
0.0
 10
95.27035582403032
 20
-97.31558134317987
 30
0.0
 10
95.30980891861545
 20
-97.19019072414338
 30
0.0
 10
95.36059013231737
 20
-97.07065948309827
 30
0.0
 10
95.41137134601928
 20
-96.95112824205317
 30
0.0
 10
95.47348067883799
 20
-96.83745637900013
 30
0.0
 10
95.54555094646528
 20
-96.73101108019266
 30
0.0
 10
95.61762121409225
 20
-96.62456578138519
 30
0.0
 10
95.6996524165278
 20
-96.52534704682327
 30
0.0
 10
95.79027736946307
 20
-96.43472206276142
 30
0.0
 10
95.88090232239836
 20
-96.34409707869925
 30
0.0
 10
95.98012102583336
 20
-96.2620658451368
 30
0.0
 10
96.08656629545925
 20
-96.18999554832826
 30
0.0
 10
96.19301156508547
 20
-96.11792525151971
 30
0.0
 10
96.30668340090256
 20
-96.05581589146472
 30
0.0
 10
96.42621461860232
 20
-96.0050346544178
 30
0.0
 10
96.54574583630209
 20
-95.95425341737086
 30
0.0
 10
96.67113643588452
 20
-95.91480030333135
 30
0.0
 10
96.80101923304078
 20
-95.88804249855372
 30
0.0
 10
96.93090203019705
 20
-95.8612846937761
 30
0.0
 10
97.06527702492744
 20
-95.84722219826037
 30
0.0
 10
97.20277703292314
 20
-95.84722219826037
 30
0.0
 10
97.20277703292314
 20
-95.84722219826037
 30
0.0
 10
101.7027772119365
 20
-95.84722219826037
 30
0.0
 10
101.7027772119365
 20
-95.84722219826037
 30
0.0
 10
101.7027772119365
 20
-95.84722219826037
 30
0.0
 10
106.2027773909498
 20
-95.84722219826037
 30
0.0
 10
106.2027773909498
 20
-95.84722219826037
 30
0.0
 10
106.2027773909498
 20
-95.84722219826037
 30
0.0
 10
110.7027775699638
 20
-95.84722219826037
 30
0.0
 10
110.7027775699638
 20
-95.84722219826037
 30
0.0
 10
110.7027775699638
 20
-95.84722219826037
 30
0.0
 10
115.2027777489771
 20
-95.84722219826037
 30
0.0
 10
115.2027777489771
 20
-95.84722219826037
 30
0.0
 10
115.2027777489771
 20
-95.84722219826037
 30
0.0
 10
119.7027779279905
 20
-95.84722219826037
 30
0.0
 10
119.7027779279905
 20
-95.84722219826037
 30
0.0
 10
119.7027779279905
 20
-95.84722219826037
 30
0.0
 10
124.2027781070044
 20
-95.84722219826037
 30
0.0
 10
124.2027781070044
 20
-95.84722219826037
 30
0.0
 10
124.2027781070044
 20
-95.84722219826037
 30
0.0
 10
128.7027782860178
 20
-95.84722219826037
 30
0.0
 10
128.7027782860178
 20
-95.84722219826037
 30
0.0
 10
128.7027782860178
 20
-95.84722219826037
 30
0.0
 10
133.2027784650311
 20
-95.84722219826037
 30
0.0
 10
133.2027784650311
 20
-95.84722219826037
 30
0.0
 10
133.3402784730268
 20
-95.84722219826037
 30
0.0
 10
133.4746534677569
 20
-95.8612846937761
 30
0.0
 10
133.6045362649135
 20
-95.88804249855372
 30
0.0
 10
133.73441906207
 20
-95.91480030333135
 30
0.0
 10
133.8598096616525
 20
-95.95425341737086
 30
0.0
 10
133.9793408793522
 20
-96.0050346544178
 30
0.0
 10
134.098872097052
 20
-96.05581589146472
 30
0.0
 10
134.2125439328691
 20
-96.11792525151971
 30
0.0
 10
134.318989202495
 20
-96.18999554832826
 30
0.0
 10
134.4254344721209
 20
-96.2620658451368
 30
0.0
 10
134.5246531755562
 20
-96.34409707869925
 30
0.0
 10
134.6152781284912
 20
-96.43472206276142
 30
0.0
 10
134.7059030814261
 20
-96.52534704682327
 30
0.0
 10
134.787934283862
 20
-96.62456578138519
 30
0.0
 10
134.860004551489
 20
-96.73101108019266
 30
0.0
 10
134.9320748191159
 20
-96.83745637900013
 30
0.0
 10
134.9941841519346
 20
-96.95112824205317
 30
0.0
 10
135.0449653656366
 20
-97.07065948309827
 30
0.0
 10
135.0957465793385
 20
-97.19019072414338
 30
0.0
 10
135.1351996739236
 20
-97.31558134317987
 30
0.0
 10
135.1619574650834
 20
-97.44546415395428
 30
0.0
 10
135.1887152562432
 20
-97.57534696472867
 30
0.0
 10
135.2027777439771
 20
-97.70972196724064
 30
0.0
 10
135.2027777439771
 20
-97.84722197523634
 30
0.0
 10
135.2027777439771
 20
-97.84722197523634
 30
0.0
 10
135.2027777439771
 20
-98.59722203067996
 30
0.0
 10
135.2027777439771
 20
-98.59722203067996
 30
0.0
 10
135.2027777439771
 20
-98.59722203067996
 30
0.0
 10
135.2027777439771
 20
-99.34722208612327
 30
0.0
 10
135.2027777439771
 20
-99.34722208612327
 30
0.0
 10
135.2027777439771
 20
-99.34722208612327
 30
0.0
 10
135.2027777439771
 20
-100.0972221415669
 30
0.0
 10
135.2027777439771
 20
-100.0972221415669
 30
0.0
 10
135.2027777439771
 20
-100.0972221415669
 30
0.0
 10
135.2027777439771
 20
-100.8472221970105
 30
0.0
 10
135.2027777439771
 20
-100.8472221970105
 30
0.0
 10
135.2027777439771
 20
-100.8472221970105
 30
0.0
 10
135.2027777439771
 20
-101.5972222524538
 30
0.0
 10
135.2027777439771
 20
-101.5972222524538
 30
0.0
 10
135.2027777439771
 20
-101.5972222524538
 30
0.0
 10
135.2027777439771
 20
-102.3472223078974
 30
0.0
 10
135.2027777439771
 20
-102.3472223078974
 30
0.0
 10
135.2027777439771
 20
-102.3472223078974
 30
0.0
 10
135.2027777439771
 20
-103.0972223633411
 30
0.0
 10
135.2027777439771
 20
-103.0972223633411
 30
0.0
 10
135.2027777439771
 20
-103.0972223633411
 30
0.0
 10
135.2027777439771
 20
-103.8472224187844
 30
0.0
 10
135.2027777439771
 20
-103.8472224187844
 30
0.0
  0
ENDSEC
  0
SECTION
  2
OBJECTS
  0
DICTIONARY
  5
C
330
0
100
AcDbDictionary
  3
ACAD_GROUP
350
D
  3
ACAD_LAYOUT
350
1A
  3
ACAD_MATERIAL
350
3B
  3
ACAD_MLEADERSTYLE
350
45
  3
ACAD_MLINESTYLE
350
17
  3
ACAD_PLOTSETTINGS
350
19
  3
ACAD_VISUALSTYLE
350
2A
  3
ACDBVARIABLEDICTIONARY
350
43
1001
ACAD
1000
TREAT_AS_HARD
1070
     0
  0
DICTIONARY
  5
D
102
{ACAD_REACTORS
330
C
102
}
330
C
100
AcDbDictionary
1001
ACAD
1000
TREAT_AS_HARD
1070
     0
  0
DICTIONARY
  5
1A
102
{ACAD_REACTORS
330
C
102
}
330
C
100
AcDbDictionary
1001
ACAD
1000
TREAT_AS_HARD
1070
     0
  0
DICTIONARY
  5
3B
102
{ACAD_REACTORS
330
C
102
}
330
C
100
AcDbDictionary
  3
BYBLOCK
350
3D
  3
BYLAYER
350
3C
  3
GLOBAL
350
3E
1001
ACAD
1000
TREAT_AS_HARD
1070
     0
  0
DICTIONARY
  5
45
102
{ACAD_REACTORS
330
C
102
}
330
C
100
AcDbDictionary
1001
ACAD
1000
TREAT_AS_HARD
1070
     0
  0
DICTIONARY
  5
17
102
{ACAD_REACTORS
330
C
102
}
330
C
100
AcDbDictionary
  3
STANDARD
350
18
1001
ACAD
1000
TREAT_AS_HARD
1070
     0
  0
DICTIONARY
  5
19
102
{ACAD_REACTORS
330
C
102
}
330
C
100
AcDbDictionary
1001
ACAD
1000
TREAT_AS_HARD
1070
     0
  0
DICTIONARY
  5
2A
102
{ACAD_REACTORS
330
C
102
}
330
C
100
AcDbDictionary
  3
2DWIREFRAME
350
2F
  3
3DWIREFRAME
350
30
  3
3D_HIDDEN
350
31
  3
BASIC
350
32
  3
BRIGHTEN
350
36
  3
COLORCHANGE
350
3A
  3
CONCEPTUAL
350
34
  3
DIM
350
35
  3
FACEPATTERN
350
39
  3
FLAT
350
2B
  3
FLATWITHEDGES
350
2C
  3
GOURAUD
350
2D
  3
GOURAUDWITHEDGES
350
2E
  3
LINEPATTERN
350
38
  3
REALISTIC
350
33
  3
THICKEN
350
37
1001
ACAD
1000
TREAT_AS_HARD
1070
     0
  0
DICTIONARY
  5
43
102
{ACAD_REACTORS
330
C
102
}
330
C
100
AcDbDictionary
  3
DIMASSOC
350
46
  3
HIDETEXT
350
47
1001
ACAD
1000
TREAT_AS_HARD
1070
     0
  0
MATERIAL
  5
3D
102
{ACAD_REACTORS
330
3B
102
}
102
{ACAD_XDICTIONARY
360
4A
102
}
330
3B
100
AcDbMaterial
  1
ByBlock
  0
MATERIAL
  5
3C
102
{ACAD_REACTORS
330
3B
102
}
102
{ACAD_XDICTIONARY
360
48
102
}
330
3B
100
AcDbMaterial
  1
ByLayer
  0
MATERIAL
  5
3E
102
{ACAD_REACTORS
330
3B
102
}
102
{ACAD_XDICTIONARY
360
4C
102
}
330
3B
100
AcDbMaterial
  1
Global
  0
MLINESTYLE
  5
18
102
{ACAD_REACTORS
330
17
102
}
330
17
100
AcDbMlineStyle
  2
Standard
 70
     0
  3

 62
   256
 51
90.0
 52
90.0
 71
     2
 49
0.5
 62
   256
  6
BYLAYER
 49
-0.5
 62
   256
  6
BYLAYER
  0
ACAD_PROXY_OBJECT
  5
2F
102
{ACAD_REACTORS
330
2A
102
}
330
2A
100
AcDbZombieObject
 90
      499
 91
      501
 93
      436
310
42CC9915DA5C99599C985B595049028333333333333E3BF0000000000000FB0107901411070040501600405405064090741402480A0340
1001
ACAD
1000
AcDbSavedByObjectVersion
1070
     0
  0
ACAD_PROXY_OBJECT
  5
30
102
{ACAD_REACTORS
330
2A
102
}
330
2A
100
AcDbZombieObject
 90
      499
 91
      501
 93
      436
310
42CCD915DA5C99599C985B595059028333333333333E3BF0000000000000FB0107901411070040501600405405064090741402480A0340
1001
ACAD
1000
AcDbSavedByObjectVersion
1070
     0
  0
ACAD_PROXY_OBJECT
  5
31
102
{ACAD_REACTORS
330
2A
102
}
330
2A
100
AcDbZombieObject
 90
      499
 91
      501
 93
      500
310
424CD108121A5919195B90640502408333333333333E3BF0000000000000FB01079024090700405020000000000001110200405405064090740C02480A0340
1001
ACAD
1000
AcDbSavedByObjectVersion
1070
     0
  0
ACAD_PROXY_OBJECT
  5
32
102
{ACAD_REACTORS
330
2A
102
}
330
2A
100
AcDbZombieObject
 90
      499
 91
      501
 93
      388
310
4150985CDA58D07406404333333333333E3BF0000000000000FB0107A41107004050150841D405064090741402480A0350
1001
ACAD
1000
AcDbSavedByObjectVersion
1070
     0
  0
ACAD_PROXY_OBJECT
  5
36
102
{ACAD_REACTORS
330
2A
102
}
330
2A
100
AcDbZombieObject
 90
      499
 91
      501
 93
      428
310
42109C9A59DA1D195B90C409028333333333333E3BF0000000000000FB010790141107004050150841D405064090741402480A029950
1001
ACAD
1000
AcDbSavedByObjectVersion
1070
     0
  0
ACAD_PROXY_OBJECT
  5
3A
102
{ACAD_REACTORS
330
2A
102
}
330
2A
100
AcDbZombieObject
 90
      499
 91
      501
 93
      452
310
42D0DBDB1BDC90DA185B99D95104090240C333333333333E3BF0000000000000FB0108901411070040501508421405064090741402480A0350
1001
ACAD
1000
AcDbSavedByObjectVersion
1070
     0
  0
ACAD_PROXY_OBJECT
  5
34
102
{ACAD_REACTORS
330
2A
102
}
330
2A
100
AcDbZombieObject
 90
      499
 91
      501
 93
      500
310
4290DBDB98D95C1D1D585B10940D028333333333333E3BF0000000000000FB0107902409070040501000000000000111010841D405064090740C02480A0340
1001
ACAD
1000
AcDbSavedByObjectVersion
1070
     0
  0
ACAD_PROXY_OBJECT
  5
35
102
{ACAD_REACTORS
330
2A
102
}
330
2A
100
AcDbZombieObject
 90
      499
 91
      501
 93
      412
310
40D11A5B50B409028333333333333E3BF0000000000000FB010790141107004050150841D405064090741402480A02677FFFFFD0
1001
ACAD
1000
AcDbSavedByObjectVersion
1070
     0
  0
ACAD_PROXY_OBJECT
  5
39
102
{ACAD_REACTORS
330
2A
102
}
330
2A
100
AcDbZombieObject
 90
      499
 91
      501
 93
      444
310
42D19858D95C185D1D195C9B90F409028333333333333E3BF0000000000000FB010790141107004050150841D405064090741402480A0350
1001
ACAD
1000
AcDbSavedByObjectVersion
1070
     0
  0
ACAD_PROXY_OBJECT
  5
2B
102
{ACAD_REACTORS
330
2A
102
}
330
2A
100
AcDbZombieObject
 90
      499
 91
      501
 93
      388
310
41119B185D240901404333333333333E3BF0000000000000F9010740A41107004050150841D405064090741402480A1B50
1001
ACAD
1000
AcDbSavedByObjectVersion
1070
     0
  0
ACAD_PROXY_OBJECT
  5
2C
102
{ACAD_REACTORS
330
2A
102
}
330
2A
100
AcDbZombieObject
 90
      499
 91
      501
 93
      476
310
43519B185D15DA5D1A115919D95CD0140901404333333333333E3BF0000000000000F9010740901411070040501600405405064090741402480A1B50
1001
ACAD
1000
AcDbSavedByObjectVersion
1070
     0
  0
ACAD_PROXY_OBJECT
  5
2D
102
{ACAD_REACTORS
330
2A
102
}
330
2A
100
AcDbZombieObject
 90
      499
 91
      501
 93
      412
310
41D1DBDD5C985D5910240902404333333333333E3BF0000000000000F9010740A411070040501641D405064090741402480A1B50
1001
ACAD
1000
AcDbSavedByObjectVersion
1070
     0
  0
ACAD_PROXY_OBJECT
  5
2E
102
{ACAD_REACTORS
330
2A
102
}
330
2A
100
AcDbZombieObject
 90
      499
 91
      501
 93
      500
310
4411DBDD5C985D5915DA5D1A115919D95CD0340902404333333333333E3BF0000000000000F9010740901411070040501600405405064090741402480A1B50
1001
ACAD
1000
AcDbSavedByObjectVersion
1070
     0
  0
ACAD_PROXY_OBJECT
  5
38
102
{ACAD_REACTORS
330
2A
102
}
330
2A
100
AcDbZombieObject
 90
      499
 91
      501
 93
      444
310
42D31A5B995C185D1D195C9B90E409028333333333333E3BF0000000000000FB010790141107004050750841D405064090741402483A0350
1001
ACAD
1000
AcDbSavedByObjectVersion
1070
     0
  0
ACAD_PROXY_OBJECT
  5
33
102
{ACAD_REACTORS
330
2A
102
}
330
2A
100
AcDbZombieObject
 90
      499
 91
      501
 93
      420
310
425499585B1A5CDD1A58D08409028333333333333E3BF0000000000000FB01079019070040501508421405064090741402480A1B40
1001
ACAD
1000
AcDbSavedByObjectVersion
1070
     0
  0
ACAD_PROXY_OBJECT
  5
37
102
{ACAD_REACTORS
330
2A
102
}
330
2A
100
AcDbZombieObject
 90
      499
 91
      501
 93
      412
310
41D51A1A58DAD95B90D409028333333333333E3BF0000000000000FB010790141107004050150C41D405064090741402480A0350
1001
ACAD
1000
AcDbSavedByObjectVersion
1070
     0
  0
DICTIONARYVAR
  5
46
102
{ACAD_REACTORS
330
43
102
}
330
43
100
DictionaryVariables
280
     0
  1
2
  0
DICTIONARYVAR
  5
47
102
{ACAD_REACTORS
330
43
102
}
330
43
100
DictionaryVariables
280
     0
  1
1
  0
DICTIONARY
  5
4A
330
3D
100
AcDbDictionary
  3
ACAD_XREC_ROUNDTRIP
360
4B
1001
ACAD
1000
TREAT_AS_HARD
1070
     1
  0
DICTIONARY
  5
48
330
3C
100
AcDbDictionary
  3
ACAD_XREC_ROUNDTRIP
360
49
1001
ACAD
1000
TREAT_AS_HARD
1070
     1
  0
DICTIONARY
  5
4C
330
3E
100
AcDbDictionary
  3
ACAD_XREC_ROUNDTRIP
360
4D
1001
ACAD
1000
TREAT_AS_HARD
1070
     1
  0
XRECORD
  5
4B
102
{ACAD_REACTORS
330
4A
102
}
330
4A
100
AcDbXrecord
102
MATERIAL
148
0.0
149
0.0
149
0.0
 93
        0
 94
      127
282
     0
 72
     1
 77
     1
171
     1
175
     1
179
     1
273
     0
  0
XRECORD
  5
49
102
{ACAD_REACTORS
330
48
102
}
330
48
100
AcDbXrecord
102
MATERIAL
148
0.0
149
0.0
149
0.0
 93
        0
 94
      127
282
     0
 72
     1
 77
     1
171
     1
175
     1
179
     1
273
     0
  0
XRECORD
  5
4D
102
{ACAD_REACTORS
330
4C
102
}
330
4C
100
AcDbXrecord
102
MATERIAL
148
0.0
149
0.0
149
0.0
 93
        0
 94
      127
282
     0
 72
     1
 77
     1
171
     1
175
     1
179
     1
273
     0
  0
ENDSEC
  0
EOF
